<mxfile host="app.diagrams.net" modified="2023-11-23T17:36:51.004Z" agent="Mozilla/5.0 (Windows NT 10.0; Win64; x64) AppleWebKit/537.36 (KHTML, like Gecko) Chrome/119.0.0.0 Safari/537.36 Edg/119.0.0.0" version="21.6.3" etag="2sj1pYK2iF-gsNCUDFxq" type="github">
  <diagram name="페이지-1" id="mTPrkNATdb_q2zftcORs">
    <mxGraphModel>
      <root>
        <mxCell id="0" />
        <mxCell id="1" parent="0" />
      </root>
    </mxGraphModel>
  </diagram>
</mxfile>
